<?xml version="1.0" encoding="UTF-8"?>
<!DOCTYPE svg PUBLIC "-//W3C//DTD SVG 1.1//EN" "http://www.w3.org/Graphics/SVG/1.1/DTD/svg11.dtd">
<svg version="1.1" xmlns="http://www.w3.org/2000/svg" xmlns:xlink="http://www.w3.org/1999/xlink" x="0" y="0" width="1526.922" height="756.617" viewBox="0, 0, 1526.922, 756.617">
  <defs>
    <clipPath id="Clip_1">
      <path d="M394.354,3.446 L919.03,3.446 L919.03,303.628 L394.354,303.628 z"/>
    </clipPath>
    <clipPath id="Clip_2">
      <path d="M17.306,0 L401.483,0 L401.483,257.26 L17.306,257.26 z"/>
    </clipPath>
    <clipPath id="Clip_3">
      <path d="M919.205,277.506 L1492.055,277.506 L1492.055,397.937 L919.205,397.937 z"/>
    </clipPath>
    <clipPath id="Clip_4">
      <path d="M621.024,275.695 L920.579,275.695 L920.579,596.2 L621.024,596.2 z"/>
    </clipPath>
    <clipPath id="Clip_5">
      <path d="M792.498,512.875 L1398.775,512.875 L1398.775,662.572 L792.498,662.572 z"/>
    </clipPath>
    <radialGradient id="Gradient_1" gradientUnits="userSpaceOnUse" cx="1105.678" cy="766.995" r="275.153">
      <stop offset="0" stop-color="#FFFFFF"/>
      <stop offset="1" stop-color="#FBF4AC"/>
    </radialGradient>
    <clipPath id="Clip_6">
      <path d="M895.806,507.957 L917.784,507.957 L917.784,545.573 L895.806,545.573 z"/>
    </clipPath>
    <clipPath id="Clip_7">
      <path d="M924.512,509.671 L957.568,509.671 L957.568,528.357 L924.512,528.357 z"/>
    </clipPath>
    <clipPath id="Clip_8">
      <path d="M905.935,527.894 L938.482,527.894 L938.482,548.11 L905.935,548.11 z"/>
    </clipPath>
    <clipPath id="Clip_9">
      <path d="M912.921,525.96 L958.234,525.96 L958.234,556.15 L912.921,556.15 z"/>
    </clipPath>
    <clipPath id="Clip_10">
      <path d="M1062.385,537.342 L1085.065,537.342 L1085.065,576.152 L1062.385,576.152 z"/>
    </clipPath>
    <clipPath id="Clip_11">
      <path d="M1072.845,557.911 L1106.425,557.911 L1106.425,578.77 L1072.845,578.77 z"/>
    </clipPath>
    <clipPath id="Clip_12">
      <path d="M1080.045,555.916 L1126.805,555.916 L1126.805,587.065 L1080.045,587.065 z"/>
    </clipPath>
    <clipPath id="Clip_13">
      <path d="M1033.155,413.617 L1052.985,413.617 L1052.985,453.912 L1033.155,453.912 z"/>
    </clipPath>
    <clipPath id="Clip_14">
      <path d="M990.975,436.439 L1025.825,436.439 L1025.825,453.657 L990.975,453.657 z"/>
    </clipPath>
    <clipPath id="Clip_15">
      <path d="M1009.765,411.943 L1042.095,411.943 L1042.095,434.442 L1009.765,434.442 z"/>
    </clipPath>
    <clipPath id="Clip_16">
      <path d="M989.445,406.014 L1034.845,406.014 L1034.845,439.314 L989.445,439.314 z"/>
    </clipPath>
    <clipPath id="Clip_17">
      <path d="M793.965,361.408 L1416.615,361.408 L1416.615,682.703 L793.965,682.703 z"/>
    </clipPath>
    <clipPath id="Clip_18">
      <path d="M1356.015,172.308 L1526.925,172.308 L1526.925,301.46 L1356.015,301.46 z"/>
    </clipPath>
    <clipPath id="Clip_19">
      <path d="M1394.185,233.784 L1411.135,233.784 L1411.135,268.228 L1394.185,268.228 z"/>
    </clipPath>
    <clipPath id="Clip_20">
      <path d="M1358.135,253.291 L1387.925,253.291 L1387.925,268.009 L1358.135,268.009 z"/>
    </clipPath>
    <clipPath id="Clip_21">
      <path d="M1374.195,232.354 L1401.825,232.354 L1401.825,251.585 L1374.195,251.585 z"/>
    </clipPath>
    <clipPath id="Clip_22">
      <path d="M1356.825,227.285 L1395.635,227.285 L1395.635,255.749 L1356.825,255.749 z"/>
    </clipPath>
  </defs>
  <g id="レイヤー_1">
    <path d="M403.861,1.503 L402.14,0.632 L16.598,236.787 L13.259,238.733 L627.765,606.56 L890.207,308.755 L916.673,300.515 L920.754,278.48 z" fill="#E6E6E5" id="path35940"/>
    <g id="g35950">
      <g clip-path="url(#Clip_1)" id="g35944">
        <path d="M404.148,3.446 L394.355,37.723 L896.104,303.629 L919.03,277.877 z" fill="#F1F1F1" id="path35942"/>
      </g>
      <g clip-path="url(#Clip_2)" id="g35948" opacity="0.49">
        <path d="M401.483,-0 L381.895,9.795 L17.305,237.673 L45.054,257.26 L386.792,46.524 z" fill="#F1F1F1" id="path35946"/>
      </g>
    </g>
    <path d="M890.207,308.755 L619.603,591.054 L13.26,238.734 L16.643,236.802 L11.12,236.583 L0,270.502 L619.41,620.316 L900.392,331.466 L919.936,277.663 z" fill="#CBCBCB" id="path35952"/>
    <path d="M922.367,276.328 L920.461,276.058 L624.108,586.09 L621.541,588.775 L1324.358,721.284 L1476.666,396.759 L1492.319,363.404 L1495.171,357.328 z" fill="#E6E6E5" id="path35954"/>
    <g id="g35974">
      <g clip-path="url(#Clip_3)" id="g35958">
        <path d="M919.205,277.506 L919.205,323.288 L1473.602,397.937 L1492.059,358.505 z" fill="#F1F1F1" id="path35956"/>
      </g>
      <g clip-path="url(#Clip_4)" id="g35962" opacity="0.49">
        <path d="M920.579,275.785 L919.943,275.695 L621.024,588.413 L662.327,596.2 L918.886,322.926 z" fill="#F1F1F1" id="path35960"/>
      </g>
      <path d="M1394.363,512.663 C1394.363,512.663 1394.004,512.722 1393.315,512.833 C1393.37,512.524 1393.425,512.217 1393.475,511.907 L1125.105,492.645 C1309.322,411.38 1271.998,385.53 1271.998,385.53 C1271.943,385.511 1271.891,385.49 1271.836,385.47 L1273.013,384.774 C1221.713,366.3 1157.778,355.338 1088.451,355.338 C919.501,355.338 782.538,420.438 782.538,500.744 C782.538,504.136 782.788,507.501 783.268,510.833 C783.138,512.584 783.068,514.339 783.068,516.105 C783.068,596.411 920.029,661.512 1088.98,661.512 C1250.031,661.512 1429.323,590.531 1394.363,512.663" fill="#E61F19" id="path35964"/>
      <g clip-path="url(#Clip_5)" id="g35968">
        <path d="M1394.363,513.723 C1394.363,513.723 1394.004,513.783 1393.315,513.893 C1393.37,513.585 1393.425,513.277 1393.475,512.966 L1392.199,512.875 C1413.643,587.907 1240.354,654.627 1084.214,654.627 C947.455,654.627 831.662,611.97 792.498,553.122 C826.169,616.037 946.14,662.573 1088.98,662.573 C1250.031,662.573 1429.323,591.591 1394.363,513.723" fill="#FCE8BD" id="path35966"/>
      </g>
      <path d="M1120.338,485.762 L1139.741,487.154 C1307.297,411.045 1271.998,386.59 1271.998,386.59 C1271.943,386.57 1271.892,386.55 1271.836,386.53 L1273.014,385.834 C1272.115,385.511 1271.203,385.195 1270.297,384.875 C1271.241,396.634 1254.842,426.426 1120.338,485.762" fill="#FCE8BD" id="path35970"/>
      <path d="M1074.942,682.703 C1039.757,682.703 1006.519,681.398 972.277,677.249 C899.191,668.39 841.809,648.004 804.787,612.78 C767.983,577.763 761.968,532.015 761.942,517.718 C761.879,482.47 774.577,467.498 784.127,452.275 C808.185,413.929 849.696,385.983 915.355,362.893 C956.801,348.32 1001.845,339.798 1049.234,337.562 C1086.899,335.787 1126.13,337.431 1165.838,343.489 C1233.468,353.808 1278.956,372.28 1280.859,373.038 C1291.728,377.373 1297.027,382.811 1292.695,393.68 C1288.363,404.544 1276.046,409.843 1265.181,405.52 C1264.539,405.265 1221.289,388.335 1158.315,378.85 C1100.767,370.182 1014.341,366.118 929.413,395.982 C811.398,437.482 802.529,492.684 804.193,514.492 C804.752,521.805 808.662,547.65 835.546,573.228 C865.82,602.032 913.539,620.559 977.375,628.299 C1063.952,638.792 1159.171,635.175 1232.087,618.623 C1292.311,604.951 1365.617,576.092 1372.844,516.239 C1373.005,514.915 1373.134,513.559 1373.23,512.208 C1374.066,500.537 1384.206,491.749 1395.878,492.59 C1407.549,493.427 1416.332,503.564 1415.496,515.236 C1415.35,517.269 1415.153,519.314 1414.912,521.317 C1409.29,567.873 1374.637,636.6 1241.468,666.831 C1193.139,677.801 1133.416,682.703 1074.942,682.703" fill="#C1996B" id="path35972"/>
    </g>
    <path d="M1061.441,378.058 C1042.071,379.753 1031.975,382.642 993.067,385.53 L993.067,385.53 C983.901,386.21 977.062,386.746 971.583,387.369 L971.583,387.369 C956.348,389.101 951.637,391.515 936.708,399.641 L936.708,399.641 C931.928,402.243 926.098,405.43 918.543,409.367 L918.543,409.367 C891.306,423.562 864.819,428.753 850.909,436.798 L850.909,436.798 C846.041,439.612 842.714,442.777 841.434,446.798 L841.434,446.798 C841.047,448.009 840.847,449.302 840.847,450.686 L840.847,450.686 C840.847,455.08 840.762,458.967 840.516,462.524 L840.516,462.524 C840.012,469.812 838.83,475.708 836.3,481.719 L836.3,481.719 C834.706,485.506 832.577,489.338 829.748,493.593 L829.748,493.593 C827.374,497.162 824.704,501.226 822.402,505.635 L822.402,505.635 C815.481,518.899 811.897,535.298 829.748,550.803 L829.748,550.803 C834.01,554.505 838.63,558.208 843.413,561.856 L843.413,561.856 C847.46,564.94 851.624,567.988 855.791,570.961 L855.791,570.961 C874.183,584.086 892.612,595.8 901.102,603.244 L901.102,603.244 C906.12,607.645 919.328,612.544 935.916,616.365 L935.916,616.365 C953.962,620.522 976.008,623.406 995.857,622.987 L995.857,622.987 C1003.879,622.816 1011.543,622.106 1018.438,620.726 L1018.438,620.726 C1054.174,613.563 1082.178,620.605 1108.257,624.391 L1108.257,624.391 C1111.11,624.805 1113.935,625.18 1116.746,625.493 L1116.746,625.493 C1137.29,627.782 1171.798,620.188 1203.124,613.384 L1203.124,613.384 C1213.05,611.228 1222.657,609.151 1231.398,607.491 L1231.398,607.491 C1233.398,607.111 1235.353,606.755 1237.253,606.424 L1237.253,606.424 C1266.995,601.238 1314.664,592.885 1332.099,580.496 L1332.099,580.496 C1336.045,577.695 1338.441,574.686 1338.734,571.461 L1338.734,571.461 C1339.585,562.087 1349.099,549.97 1356.272,540.257 L1356.272,540.257 C1362.479,531.861 1370.139,510.959 1365.729,509.485 L1365.729,509.485 C1359.015,507.242 1266.757,498.994 1194.13,490.414 L1194.13,490.414 C1171.338,487.723 1142.67,489.98 1129.863,491.264 L1129.863,491.264 C1130.233,491.175 1130.596,491.078 1130.955,490.974 L1130.955,490.974 C1143.569,487.304 1149.308,474.306 1180.371,459.656 L1180.371,459.656 C1197.321,451.664 1214.341,443.18 1227.903,435.454 L1227.903,435.454 C1241.519,427.694 1251.643,420.696 1254.696,415.725 L1254.696,415.725 C1254.696,415.725 1253.11,407.779 1229.326,407.779 L1229.326,407.779 C1213.987,407.779 1186.116,404.475 1164.003,399.995 L1164.003,399.995 C1154.189,398.007 1145.508,395.788 1139.562,393.523 L1139.562,393.523 C1138.136,392.981 1136.864,392.433 1135.774,391.887 L1135.774,391.887 C1119.918,383.941 1067.593,377.584 1067.593,377.584 L1067.593,377.584 C1065.423,377.729 1063.385,377.887 1061.441,378.058 z" fill="url(#Gradient_1)" id="path35976"/>
    <g id="g36092">
      <path d="M966.368,533.586 C966.368,515.297 948.68,500.472 926.863,500.472 C905.046,500.472 887.358,515.297 887.358,533.586 C887.358,551.875 905.046,566.701 926.863,566.701 C948.68,566.701 966.368,551.875 966.368,533.586" fill="#FFAD9E" id="path35978"/>
      <g clip-path="url(#Clip_6)" id="g35982">
        <path d="M916.407,508.605 C911.78,504.905 897.815,517.901 897.815,526.034 C897.815,534.167 892.006,551.595 900.139,543.462 C908.273,535.329 922.215,513.251 916.407,508.605" fill="#FFAD9E" id="path35980"/>
      </g>
      <g clip-path="url(#Clip_7)" id="g35986">
        <path d="M924.539,521.387 C924.539,515.576 923.377,506.282 936.158,510.93 C948.939,515.576 965.207,528.358 953.588,528.358 C941.969,528.358 924.539,521.387 924.539,521.387" fill="#FFAD9E" id="path35984"/>
      </g>
      <g clip-path="url(#Clip_8)" id="g35990">
        <path d="M938.482,535.329 C938.482,535.329 925.701,523.711 922.214,529.519 C918.73,535.329 901.301,548.11 907.111,548.11 C912.92,548.11 938.482,535.329 938.482,535.329" fill="#FFAD9E" id="path35988"/>
      </g>
      <g clip-path="url(#Clip_9)" id="g35994">
        <path d="M912.921,548.11 C912.921,548.11 947.777,545.787 952.426,533.005 C957.072,520.224 958.234,527.196 958.234,535.329 C958.234,543.463 939.645,569.024 912.921,548.11" fill="#FFAD9E" id="path35992"/>
      </g>
      <path d="M1135.193,563.784 C1135.193,544.914 1116.945,529.618 1094.433,529.618 C1071.923,529.618 1053.673,544.914 1053.673,563.784 C1053.673,582.654 1071.923,597.951 1094.433,597.951 C1116.945,597.951 1135.193,582.654 1135.193,563.784" fill="#FFAD9E" id="path35996"/>
      <g clip-path="url(#Clip_10)" id="g36000">
        <path d="M1083.644,538.011 C1078.872,534.191 1064.463,547.601 1064.463,555.992 C1064.463,564.384 1058.468,582.366 1066.861,573.975 C1075.252,565.583 1089.638,542.805 1083.644,538.011" fill="#FFAD9E" id="path35998"/>
      </g>
      <path d="M1092.036,551.197 C1092.036,545.203 1090.838,535.611 1104.025,540.408 C1117.212,545.203 1133.995,558.388 1122.006,558.388 C1110.018,558.388 1092.036,551.197 1092.036,551.197" fill="#FFAD9E" id="path36002"/>
      <g clip-path="url(#Clip_11)" id="g36008">
        <path d="M1106.422,565.583 C1106.422,565.583 1093.234,553.596 1089.639,559.589 C1086.041,565.583 1068.061,578.77 1074.054,578.77 C1080.048,578.77 1106.422,565.583 1106.422,565.583" fill="#FFAD9E" id="path36006"/>
      </g>
      <g clip-path="url(#Clip_12)" id="g36012">
        <path d="M1080.048,578.77 C1080.048,578.77 1116.014,576.373 1120.808,563.186 C1125.603,549.999 1126.802,557.192 1126.802,565.583 C1126.802,573.975 1107.62,600.35 1080.048,578.77" fill="#FFAD9E" id="path36010"/>
      </g>
      <path d="M981.275,432.395 C982.977,451.188 1002.531,464.778 1024.95,462.748 C1047.369,460.717 1064.165,443.839 1062.463,425.045 C1060.762,406.252 1041.209,392.664 1018.79,394.693 C996.37,396.723 979.575,413.602 981.275,432.395" fill="#FFAD9E" id="path36014"/>
      <g clip-path="url(#Clip_13)" id="g36018">
        <path d="M1034.939,453.417 C1040.037,456.79 1053.177,442.137 1052.421,433.779 C1051.664,425.421 1056.011,406.972 1048.413,416.085 C1040.811,425.199 1028.536,449.182 1034.939,453.417" fill="#FFAD9E" id="path36016"/>
      </g>
      <g clip-path="url(#Clip_14)" id="g36022">
        <path d="M1025.393,441.04 C1025.933,447.01 1027.992,456.453 1014.424,452.867 C1000.861,449.279 982.955,437.659 994.896,436.579 C1006.835,435.498 1025.393,441.04 1025.393,441.04" fill="#FFAD9E" id="path36020"/>
      </g>
      <g clip-path="url(#Clip_15)" id="g36026">
        <path d="M1009.768,428.011 C1009.768,428.011 1023.982,438.76 1027.022,432.465 C1030.065,426.172 1046.785,411.417 1040.816,411.958 C1034.846,412.499 1009.768,428.011 1009.768,428.011" fill="#FFAD9E" id="path36024"/>
      </g>
      <g clip-path="url(#Clip_16)" id="g36030">
        <path d="M1034.847,412.499 C1034.847,412.499 999.244,418.13 995.657,431.694 C992.071,445.261 990.227,438.204 989.471,429.847 C988.715,421.49 1005.442,393.494 1034.847,412.499" fill="#FFAD9E" id="path36028"/>
      </g>
      <path d="M1264.398,531.672 C1264.398,531.672 1245.664,565.258 1230.841,563.012 C1216.018,560.767 1222.333,579.143 1231.225,580.491 C1240.119,581.838 1281.087,551.62 1279.296,543.43 C1277.503,535.24 1264.398,531.672 1264.398,531.672" fill="#CC6200" id="path36032"/>
      <path d="M1229.455,567.156 C1229.532,568.346 1229.734,569.528 1230.075,570.662 C1230.425,571.782 1230.935,572.894 1231.782,573.672 C1232.199,574.057 1232.697,574.346 1233.244,574.474 C1233.788,574.609 1234.363,574.598 1234.924,574.487 C1235.482,574.383 1236.024,574.172 1236.574,573.949 C1237.12,573.725 1237.662,573.484 1238.198,573.233 C1242.49,571.201 1246.638,568.832 1250.626,566.243 C1254.635,563.687 1258.49,560.878 1262.038,557.72 C1263.81,556.14 1265.493,554.454 1266.977,552.602 C1268.466,550.763 1269.769,548.732 1270.5,546.453 C1269.934,548.785 1268.68,550.898 1267.272,552.833 C1265.832,554.755 1264.179,556.505 1262.437,558.154 C1258.934,561.437 1255.043,564.263 1251.04,566.886 C1249.018,568.173 1246.961,569.396 1244.865,570.553 C1242.767,571.702 1240.645,572.821 1238.439,573.767 C1237.889,574.006 1237.334,574.235 1236.768,574.446 C1236.208,574.654 1235.625,574.865 1235.006,574.962 C1234.394,575.065 1233.746,575.06 1233.135,574.89 C1232.52,574.724 1231.963,574.382 1231.523,573.94 C1230.641,573.044 1230.184,571.872 1229.88,570.716 C1229.585,569.55 1229.451,568.349 1229.455,567.156" fill="#B7282C" id="path36034"/>
      <path d="M1027.157,517.499 C1023.206,516.832 1019.223,516.352 1015.243,515.943 C1008.893,515.292 1002.392,514.792 996.055,515.821 C994.255,516.114 992.109,516.624 990.704,517.996 C988.958,519.698 988.849,522.212 989.974,524.413 C992.202,528.763 995.941,534.004 1000.745,534.74 C1002.781,535.054 1004.894,534.614 1006.242,532.773 C1007.137,531.55 1005.984,529.63 1005.188,528.804 C1004.168,527.745 1002.349,526.717 1000.912,527.273 C999.074,527.985 997.282,528.884 995.543,529.845 C993.161,531.159 990.257,532.942 988.978,535.665 C986.715,540.499 991.423,544.436 994.849,546.284 C998.461,548.234 1002.638,549.202 1006.563,550.005 C1014.74,551.678 1023.432,552.504 1031.719,551.42 C1034.633,551.038 1037.979,550.551 1040.428,548.579 C1043.053,546.461 1042.636,543.177 1041.036,540.452 C1041.011,540.411 1040.985,540.369 1040.96,540.328 C1041.099,541.389 1041.24,542.448 1041.379,543.51 C1043.366,540.102 1044.601,535.944 1044.596,531.89 C1044.586,528.328 1043.045,524.971 1040.665,522.628 C1036.9,518.921 1031.839,517.771 1026.961,517.436 C1026.738,517.422 1026.513,517.409 1026.291,517.4 C1024.554,517.313 1023.692,519.067 1024.356,520.732 C1025.134,522.68 1027.058,523.912 1028.925,524.003 C1029.472,524.03 1030.018,524.067 1030.565,524.115 C1031.592,524.207 1029.929,524.025 1030.916,524.158 C1031.206,524.196 1031.492,524.243 1031.777,524.291 C1032.31,524.381 1032.841,524.5 1033.367,524.63 C1033.648,524.698 1035.209,525.214 1034.099,524.819 C1034.451,524.943 1034.797,525.091 1035.136,525.244 C1035.459,525.39 1036.764,526.157 1035.507,525.395 C1035.83,525.592 1036.14,525.815 1036.444,526.05 C1037.033,526.507 1035.638,525.325 1036.183,525.82 C1036.311,525.937 1036.435,526.063 1036.556,526.189 C1036.635,526.27 1036.712,526.355 1036.788,526.441 C1037.252,526.958 1036.158,525.622 1036.576,526.172 C1036.773,526.43 1036.946,526.706 1037.111,526.987 C1037.443,527.552 1036.681,526.129 1036.968,526.717 C1037.035,526.857 1037.096,527.004 1037.159,527.148 C1037.279,527.437 1037.376,527.735 1037.466,528.036 C1037.125,526.895 1037.397,527.824 1037.452,528.106 C1037.511,528.412 1037.55,528.721 1037.582,529.03 C1037.613,529.341 1037.627,529.651 1037.635,529.961 C1037.65,530.563 1037.646,529.187 1037.634,529.789 C1037.624,529.943 1037.62,530.099 1037.613,530.254 C1037.549,531.424 1037.33,532.58 1037.039,533.705 C1036.91,534.213 1036.756,534.712 1036.592,535.207 C1036.367,535.888 1036.842,534.537 1036.529,535.377 C1036.442,535.609 1036.351,535.841 1036.258,536.072 C1035.87,537.035 1035.436,537.995 1034.919,538.883 C1034.317,539.913 1034.785,541.164 1035.338,542.062 C1035.888,542.958 1035.03,541.354 1035.348,542.065 C1035.395,542.177 1035.435,542.293 1035.475,542.408 C1035.649,542.914 1035.254,541.502 1035.363,542.013 C1035.432,542.338 1035.379,543.106 1035.419,541.945 C1035.408,542.268 1035.137,543.064 1035.509,542.005 C1035.441,542.194 1035.345,542.369 1035.243,542.536 C1035.188,542.623 1035.126,542.705 1035.063,542.785 C1034.783,543.155 1035.586,542.224 1035.26,542.562 C1034.892,542.944 1034.449,543.232 1034.005,543.486 C1033.826,543.588 1033.356,543.806 1034.174,543.407 C1034.045,543.469 1033.913,543.526 1033.782,543.584 C1033.502,543.706 1033.217,543.812 1032.932,543.911 C1032.23,544.157 1031.514,544.34 1030.794,544.5 C1030.427,544.583 1030.057,544.652 1029.686,544.72 C1029.494,544.753 1029.3,544.783 1029.105,544.814 C1028.407,544.928 1029.801,544.72 1029.088,544.815 C1028.165,544.94 1027.235,545.026 1026.307,545.094 C1022.195,545.39 1018.054,545.225 1013.952,544.842 C1013.432,544.793 1012.915,544.737 1012.396,544.682 C1013.251,544.774 1012.371,544.676 1012.229,544.659 C1011.971,544.627 1011.712,544.595 1011.456,544.562 C1010.348,544.416 1009.245,544.248 1008.142,544.062 C1006.127,543.721 1004.123,543.3 1002.136,542.789 C1001.401,542.602 1000.671,542.393 999.943,542.174 C999.596,542.068 999.251,541.957 998.905,541.844 C997.909,541.517 999.593,542.096 998.626,541.745 C997.909,541.483 997.204,541.194 996.507,540.875 C996.243,540.755 994.884,539.999 996.023,540.671 C995.648,540.45 995.29,540.195 994.943,539.925 C996.039,540.784 995.211,540.147 994.959,539.865 C996.078,541.116 994.706,539.147 995.437,540.602 C995.052,539.834 995.472,540.941 995.417,540.676 C995.259,539.894 995.365,540.979 995.384,540.711 C995.398,540.495 995.449,540.285 995.506,540.081 C995.242,541.033 995.433,540.305 995.564,540.045 C995.674,539.83 995.805,539.631 995.937,539.435 C996.071,539.239 996.765,538.453 996.137,539.145 C997.757,537.363 999.903,536.146 1001.943,535.077 C1002.653,534.705 1001.448,535.319 1002.142,534.976 C1002.363,534.866 1002.583,534.761 1002.804,534.656 C1003.212,534.463 1003.623,534.277 1004.037,534.097 C1004.394,533.94 1004.753,533.788 1005.114,533.647 C1003.338,531.814 1001.561,529.98 999.784,528.147 C999.539,528.483 1000.483,527.435 999.982,527.908 C999.882,528.002 999.775,528.086 999.666,528.166 C999.021,528.635 1000.232,527.945 999.721,528.166 C999.532,528.246 999.337,528.296 999.14,528.335 C1000.25,528.113 999.448,528.277 999.109,528.251 C1000.223,528.334 999.73,528.324 999.447,528.259 C998.84,528.117 1000.392,528.623 999.78,528.38 C999.622,528.317 999.469,528.239 999.318,528.16 C1000.54,528.791 999.689,528.37 999.398,528.16 C999.178,528 998.579,527.452 999.496,528.268 C999.301,528.096 999.117,527.906 998.933,527.72 C998.731,527.512 998.538,527.29 998.348,527.07 C997.656,526.277 998.847,527.738 998.161,526.83 C997.694,526.212 997.268,525.556 996.851,524.894 C996.613,524.516 996.389,524.127 996.164,523.738 C995.874,523.237 996.645,524.726 996.32,524.024 C996.182,523.723 995.946,522.853 996.296,524.145 C996.246,523.96 996.218,523.77 996.201,523.577 C996.186,523.412 996.114,524.503 996.23,523.766 C996.34,523.063 995.887,524.48 996.189,523.85 C996.262,523.696 996.358,523.558 996.459,523.425 C996.501,523.37 995.883,523.988 996.41,523.524 C996.557,523.396 996.716,523.287 996.875,523.182 C996.961,523.127 997.05,523.076 997.138,523.024 C997.696,522.705 996.55,523.305 996.968,523.109 C997.965,522.645 999.048,522.407 1000.111,522.219 C1001.073,522.05 999.628,522.276 1000.394,522.176 C1000.718,522.133 1001.04,522.099 1001.362,522.066 C1002.108,521.993 1002.855,521.947 1003.604,521.914 C1005.173,521.843 1006.746,521.851 1008.315,521.891 C1010.683,521.951 1013.049,522.108 1015.41,522.313 C1016.542,522.411 1017.673,522.521 1018.802,522.644 C1019.043,522.668 1019.282,522.694 1019.522,522.722 C1019.64,522.735 1019.759,522.748 1019.877,522.761 C1020.549,522.837 1019.044,522.665 1019.706,522.742 C1020.262,522.806 1020.816,522.875 1021.37,522.944 C1023.603,523.224 1025.838,523.528 1028.061,523.904 C1029.533,524.152 1031.387,523.602 1031.092,521.51 C1030.812,519.543 1028.877,517.789 1027.161,517.499" fill="#078B43" id="path36036"/>
      <path d="M1055.696,464.578 C1056.404,468.599 1057.388,472.531 1058.47,476.411 C1060.197,482.604 1062.203,488.835 1066.287,493.936 C1067.447,495.386 1069.056,497.009 1071.567,497.405 C1074.683,497.898 1078.258,496.382 1080.878,493.944 C1086.06,489.123 1091.861,482.354 1090.898,477.514 C1090.488,475.461 1088.993,473.822 1085.847,473.779 C1083.757,473.75 1081.54,476.033 1080.712,477.29 C1079.652,478.895 1078.963,481.211 1080.343,482.161 C1082.107,483.373 1084.115,484.426 1086.189,485.391 C1089.028,486.709 1092.737,488.205 1097.092,487.617 C1104.824,486.569 1108.387,479.759 1109.558,475.454 C1110.792,470.918 1110.413,466.499 1109.906,462.412 C1108.851,453.903 1106.392,445.469 1101.422,438.63 C1099.674,436.225 1097.596,433.496 1093.808,432.54 C1089.743,431.511 1085.305,434.002 1082.146,437.208 C1082.098,437.258 1082.05,437.307 1082.004,437.356 C1083.435,436.547 1084.863,435.739 1086.295,434.931 C1080.684,435.314 1074.332,436.863 1068.641,439.473 C1063.645,441.767 1059.573,445.332 1057.275,449 C1053.637,454.807 1054.131,460.145 1055.689,464.797 C1055.763,465.009 1055.84,465.222 1055.919,465.432 C1056.52,467.061 1059.34,466.722 1061.401,465.047 C1063.813,463.089 1064.742,460.546 1064.092,458.79 C1063.902,458.275 1063.727,457.756 1063.568,457.227 C1063.269,456.234 1063.708,457.861 1063.48,456.881 C1063.414,456.594 1063.361,456.304 1063.309,456.012 C1063.214,455.468 1063.16,454.912 1063.123,454.349 C1063.103,454.05 1063.177,452.3 1063.084,453.561 C1063.113,453.162 1063.175,452.755 1063.25,452.344 C1063.319,451.958 1063.854,450.279 1063.307,451.912 C1063.449,451.49 1063.634,451.064 1063.838,450.639 C1064.232,449.809 1063.156,451.838 1063.624,451.023 C1063.734,450.831 1063.858,450.639 1063.984,450.447 C1064.067,450.322 1064.154,450.2 1064.242,450.075 C1064.775,449.32 1063.354,451.174 1063.952,450.44 C1064.231,450.097 1064.549,449.761 1064.876,449.428 C1065.531,448.765 1063.847,450.372 1064.555,449.734 C1064.723,449.581 1064.904,449.432 1065.083,449.281 C1065.437,448.989 1065.815,448.709 1066.201,448.432 C1064.739,449.474 1065.931,448.633 1066.304,448.401 C1066.709,448.151 1067.126,447.918 1067.547,447.689 C1067.969,447.46 1068.4,447.249 1068.834,447.04 C1069.672,446.64 1067.742,447.528 1068.59,447.155 C1068.81,447.058 1069.031,446.967 1069.253,446.875 C1070.921,446.181 1072.636,445.637 1074.336,445.178 C1075.102,444.972 1075.868,444.789 1076.631,444.618 C1077.68,444.386 1075.587,444.822 1076.895,444.567 C1077.26,444.496 1077.621,444.43 1077.983,444.366 C1079.499,444.1 1081.027,443.879 1082.489,443.778 C1084.184,443.663 1085.747,442.434 1086.778,441.353 C1087.804,440.276 1085.912,442.088 1086.778,441.348 C1086.916,441.23 1087.062,441.119 1087.207,441.01 C1087.843,440.527 1086.024,441.794 1086.696,441.366 C1087.124,441.094 1088.226,440.648 1086.581,441.357 C1087.037,441.163 1088.268,440.894 1086.626,441.24 C1086.919,441.179 1087.203,441.154 1087.481,441.141 C1087.627,441.133 1087.768,441.137 1087.907,441.141 C1088.543,441.158 1086.901,441.027 1087.511,441.106 C1088.199,441.195 1088.792,441.412 1089.332,441.653 C1089.548,441.749 1090.048,442.038 1089.15,441.552 C1089.293,441.628 1089.424,441.711 1089.561,441.794 C1089.848,441.97 1090.115,442.16 1090.376,442.356 C1091.011,442.836 1091.566,443.371 1092.091,443.922 C1092.36,444.203 1092.612,444.495 1092.858,444.789 C1092.988,444.941 1093.111,445.098 1093.236,445.255 C1093.682,445.818 1092.81,444.685 1093.246,445.269 C1093.806,446.029 1094.311,446.819 1094.792,447.621 C1096.921,451.169 1098.412,455.04 1099.582,459.015 C1099.729,459.519 1099.869,460.025 1100.004,460.533 C1099.781,459.695 1100.014,460.559 1100.044,460.7 C1100.106,460.954 1100.167,461.212 1100.227,461.467 C1100.484,462.565 1100.707,463.679 1100.904,464.8 C1101.265,466.85 1101.508,468.944 1101.619,471.078 C1101.659,471.868 1101.672,472.666 1101.665,473.47 C1101.665,473.852 1101.651,474.239 1101.634,474.625 C1101.59,475.739 1101.704,473.836 1101.612,474.941 C1101.546,475.761 1101.433,476.59 1101.273,477.427 C1101.213,477.743 1100.721,479.465 1101.19,477.997 C1101.035,478.48 1100.827,478.971 1100.589,479.461 C1101.341,477.91 1100.793,479.071 1100.5,479.484 C1101.792,477.664 1099.596,480.176 1101.336,478.575 C1100.419,479.42 1101.797,478.327 1101.448,478.547 C1100.416,479.194 1101.896,478.398 1101.509,478.555 C1101.201,478.679 1100.885,478.769 1100.575,478.848 C1102.021,478.475 1100.92,478.77 1100.5,478.817 C1100.154,478.858 1099.819,478.866 1099.488,478.87 C1099.159,478.876 1097.765,478.748 1098.998,478.876 C1095.824,478.547 1093.22,477.379 1090.871,476.21 C1090.052,475.803 1091.416,476.504 1090.644,476.095 C1090.4,475.964 1090.159,475.832 1089.921,475.698 C1089.48,475.452 1089.047,475.197 1088.622,474.938 C1088.255,474.714 1087.89,474.486 1087.543,474.246 C1085.708,477.04 1083.874,479.833 1082.04,482.627 C1082.614,482.635 1080.748,482.45 1081.622,482.6 C1081.797,482.631 1081.958,482.676 1082.114,482.724 C1083.041,483.009 1081.571,482.349 1082.091,482.675 C1082.283,482.793 1082.433,482.939 1082.571,483.093 C1081.798,482.226 1082.36,482.849 1082.466,483.175 C1082.119,482.109 1082.312,482.562 1082.336,482.862 C1082.389,483.506 1082.453,481.767 1082.369,482.48 C1082.346,482.665 1082.298,482.854 1082.252,483.044 C1082.63,481.526 1082.391,482.571 1082.219,482.971 C1082.086,483.274 1081.564,484.169 1082.33,482.812 C1082.167,483.1 1081.978,483.388 1081.793,483.676 C1081.586,483.995 1081.355,484.31 1081.127,484.627 C1080.3,485.765 1081.853,483.743 1080.865,484.95 C1080.192,485.773 1079.448,486.581 1078.692,487.385 C1078.26,487.844 1077.808,488.299 1077.357,488.754 C1076.775,489.339 1078.543,487.681 1077.692,488.428 C1077.328,488.746 1076.202,489.52 1077.873,488.372 C1077.634,488.538 1077.378,488.683 1077.114,488.823 C1076.887,488.941 1078.453,488.307 1077.366,488.676 C1076.335,489.026 1078.513,488.528 1077.503,488.659 C1077.257,488.69 1077.023,488.693 1076.797,488.686 C1076.698,488.683 1077.825,488.849 1076.953,488.666 C1076.713,488.614 1076.493,488.542 1076.279,488.465 C1076.165,488.422 1076.056,488.374 1075.948,488.325 C1075.267,488.024 1076.588,488.682 1076.139,488.425 C1075.072,487.817 1074.286,486.987 1073.58,486.141 C1072.942,485.376 1073.862,486.544 1073.401,485.911 C1073.207,485.645 1073.024,485.374 1072.845,485.101 C1072.43,484.472 1072.056,483.819 1071.698,483.161 C1070.945,481.78 1070.301,480.345 1069.705,478.892 C1068.803,476.699 1068.04,474.448 1067.344,472.17 C1067.009,471.078 1066.696,469.978 1066.396,468.873 C1066.332,468.639 1066.269,468.402 1066.206,468.167 C1066.176,468.052 1066.145,467.935 1066.115,467.82 C1065.941,467.161 1066.325,468.64 1066.158,467.987 C1066.018,467.441 1065.883,466.892 1065.75,466.346 C1065.212,464.134 1064.71,461.906 1064.311,459.643 C1064.048,458.146 1062.504,456.813 1059.69,458.428 C1057.045,459.945 1055.388,462.831 1055.694,464.578" fill="#078B43" id="path36038"/>
      <path d="M876.031,470.615 C873.533,473.011 871.144,475.522 868.804,478.067 C865.071,482.128 861.36,486.368 858.748,491.26 C858.006,492.649 857.229,494.385 857.406,496.04 C857.627,498.094 859.236,499.424 861.278,499.742 C865.319,500.377 870.736,500.407 873.722,497.457 C874.988,496.206 875.796,494.53 875.277,492.678 C874.932,491.45 873.059,491.288 872.098,491.427 C870.867,491.602 869.239,492.344 868.861,493.618 C868.378,495.24 868.041,496.928 867.772,498.607 C867.407,500.909 867.078,503.803 868.218,506.044 C870.244,510.019 875.299,508.73 878.306,507.286 C881.474,505.765 884.288,503.364 886.861,501.051 C892.22,496.239 897.287,490.646 900.878,484.383 C902.139,482.179 903.556,479.626 903.522,476.952 C903.485,474.082 901.092,472.731 898.455,472.477 C898.414,472.475 898.373,472.471 898.333,472.469 C899.108,472.901 899.884,473.332 900.658,473.765 C899.433,470.693 897.321,467.766 894.632,465.748 C892.269,463.975 889.24,463.369 886.451,463.844 C882.038,464.594 878.644,467.515 875.887,470.718 C875.76,470.866 875.636,471.013 875.513,471.165 C874.555,472.319 875.267,473.79 876.717,474.162 C878.411,474.596 880.228,473.881 881.26,472.638 C881.561,472.272 881.87,471.914 882.186,471.56 C882.78,470.897 881.797,471.956 882.396,471.34 C882.572,471.16 882.752,470.985 882.933,470.811 C883.27,470.487 883.623,470.181 883.984,469.882 C884.176,469.723 885.327,468.903 884.489,469.47 C884.755,469.291 885.031,469.125 885.311,468.967 C885.574,468.816 886.761,468.298 885.603,468.787 C885.902,468.661 886.211,468.558 886.524,468.466 C887.134,468.286 885.625,468.662 886.236,468.532 C886.382,468.501 886.528,468.479 886.675,468.458 C886.77,468.444 886.865,468.432 886.962,468.424 C887.547,468.36 886.092,468.45 886.675,468.435 C886.945,468.427 887.22,468.445 887.493,468.472 C888.04,468.524 886.7,468.341 887.238,468.436 C887.367,468.46 887.496,468.489 887.624,468.52 C887.877,468.582 888.126,468.664 888.372,468.751 C887.439,468.416 888.195,468.692 888.411,468.796 C888.643,468.907 888.869,469.033 889.091,469.167 C889.312,469.299 889.525,469.445 889.735,469.594 C890.141,469.884 889.228,469.2 889.619,469.509 C889.72,469.588 889.819,469.672 889.917,469.756 C890.658,470.383 891.311,471.111 891.906,471.872 C892.174,472.215 892.426,472.571 892.669,472.93 C893.003,473.426 892.354,472.425 892.748,473.058 C892.858,473.235 892.963,473.413 893.067,473.594 C893.504,474.341 893.915,475.121 894.234,475.921 C894.604,476.848 895.675,477.15 896.559,477.217 C897.438,477.282 895.93,477.075 896.563,477.215 C896.663,477.238 896.76,477.266 896.858,477.297 C897.283,477.429 896.142,476.997 896.537,477.176 C896.789,477.291 897.269,477.713 896.522,477.105 C896.729,477.273 897.116,477.858 896.608,477.073 C896.698,477.214 896.762,477.368 896.821,477.521 C896.85,477.602 896.873,477.685 896.894,477.768 C896.993,478.147 896.793,477.129 896.847,477.522 C896.909,477.967 896.871,478.417 896.807,478.85 C896.783,479.023 896.681,479.457 896.843,478.694 C896.817,478.815 896.786,478.932 896.757,479.052 C896.692,479.307 896.613,479.555 896.531,479.804 C896.33,480.411 896.078,480.996 895.81,481.574 C895.674,481.868 895.527,482.158 895.379,482.448 C895.302,482.597 895.221,482.747 895.141,482.897 C894.851,483.435 895.438,482.368 895.133,482.909 C894.735,483.61 894.308,484.293 893.869,484.969 C891.928,487.956 889.666,490.733 887.28,493.376 C886.977,493.71 886.672,494.041 886.365,494.371 C886.872,493.827 886.349,494.386 886.263,494.475 C886.108,494.637 885.952,494.799 885.795,494.961 C885.125,495.652 884.438,496.331 883.743,496.998 C882.469,498.221 881.148,499.395 879.777,500.512 C879.269,500.927 878.753,501.327 878.228,501.72 C877.978,501.908 877.723,502.092 877.469,502.273 C876.736,502.798 877.995,501.925 877.259,502.416 C876.715,502.781 876.155,503.124 875.581,503.445 C875.366,503.567 874.158,504.132 875.196,503.678 C874.854,503.828 874.499,503.948 874.138,504.053 C875.279,503.724 874.427,503.978 874.107,504.011 C875.517,503.863 873.5,503.828 874.844,504.05 C874.135,503.932 875.087,504.194 874.883,504.099 C874.282,503.819 875.057,504.286 874.888,504.141 C874.754,504.022 874.64,503.884 874.535,503.742 C875.028,504.397 874.645,503.904 874.541,503.682 C874.455,503.501 874.391,503.31 874.331,503.12 C874.271,502.931 874.111,502.059 874.243,502.839 C873.905,500.832 874.214,498.741 874.566,496.799 C874.689,496.123 874.469,497.262 874.603,496.611 C874.645,496.404 874.689,496.2 874.735,495.995 C874.818,495.617 874.909,495.24 875.005,494.866 C875.087,494.541 875.172,494.216 875.267,493.896 C873.13,494.209 870.991,494.52 868.853,494.834 C868.947,495.172 868.743,493.996 868.797,494.579 C868.807,494.694 868.806,494.81 868.802,494.924 C868.778,495.604 868.952,494.424 868.83,494.888 C868.786,495.056 868.718,495.217 868.641,495.373 C869.072,494.496 868.763,495.13 868.57,495.352 C869.203,494.625 868.941,494.961 868.75,495.123 C868.342,495.471 869.484,494.65 869.005,494.953 C868.881,495.031 868.749,495.097 868.618,495.163 C869.673,494.634 868.949,495.011 868.66,495.107 C868.439,495.179 867.765,495.318 868.783,495.093 C868.566,495.141 868.345,495.175 868.126,495.207 C867.884,495.246 867.637,495.266 867.39,495.29 C866.506,495.371 868.093,495.276 867.135,495.298 C866.483,495.311 865.827,495.28 865.172,495.237 C864.798,495.213 864.423,495.173 864.048,495.136 C863.565,495.087 864.953,495.296 864.319,495.169 C864.048,495.115 863.348,494.844 864.386,495.248 C864.237,495.189 864.096,495.114 863.961,495.03 C863.844,494.956 864.53,495.553 864.101,495.102 C863.692,494.678 864.395,495.697 864.135,495.173 C864.072,495.047 864.03,494.911 863.995,494.776 C863.979,494.718 864.067,495.455 864.035,494.859 C864.026,494.694 864.036,494.53 864.049,494.367 C864.056,494.279 864.069,494.192 864.082,494.106 C864.159,493.561 863.961,494.653 864.051,494.266 C864.26,493.345 864.665,492.48 865.093,491.653 C865.482,490.904 864.881,492.014 865.213,491.433 C865.351,491.189 865.497,490.95 865.643,490.712 C865.982,490.159 866.341,489.621 866.708,489.086 C867.476,487.967 868.299,486.885 869.141,485.821 C870.413,484.216 871.747,482.661 873.109,481.133 C873.762,480.399 874.425,479.674 875.092,478.953 C875.234,478.8 875.377,478.648 875.519,478.495 C875.59,478.421 875.659,478.346 875.73,478.27 C876.129,477.845 875.231,478.798 875.628,478.378 C875.96,478.027 876.292,477.678 876.627,477.331 C877.973,475.927 879.337,474.535 880.742,473.187 C881.671,472.294 882.271,470.739 880.73,469.901 C879.283,469.112 877.114,469.575 876.031,470.615" fill="#078B43" id="path36040"/>
      <path d="M1021.922,554.843 C1021.922,554.843 1016.654,592.938 1002.027,596.224 C987.401,599.512 999.953,614.344 1008.731,612.372 C1017.505,610.401 1044.713,567.373 1040.072,560.393 C1035.43,553.411 1021.922,554.843 1021.922,554.843" fill="#CC6200" id="path36042"/>
      <path d="M1002.24,600.59 C1002.745,601.671 1003.362,602.698 1004.09,603.632 C1004.821,604.549 1005.7,605.4 1006.771,605.818 C1007.302,606.024 1007.871,606.112 1008.426,606.035 C1008.982,605.962 1009.515,605.743 1009.996,605.438 C1010.479,605.137 1010.907,604.742 1011.34,604.336 C1011.767,603.93 1012.183,603.508 1012.594,603.079 C1015.855,599.626 1018.858,595.915 1021.634,592.056 C1024.444,588.219 1027.017,584.202 1029.177,579.972 C1030.255,577.858 1031.211,575.675 1031.921,573.41 C1032.642,571.157 1033.117,568.791 1032.971,566.402 C1033.292,568.781 1032.889,571.204 1032.28,573.518 C1031.635,575.831 1030.73,578.064 1029.705,580.232 C1027.633,584.561 1025.032,588.61 1022.254,592.505 C1020.84,594.437 1019.364,596.324 1017.832,598.162 C1016.293,599.996 1014.724,601.808 1013.011,603.489 C1012.584,603.912 1012.15,604.327 1011.701,604.729 C1011.254,605.126 1010.787,605.533 1010.245,605.848 C1009.712,606.167 1009.108,606.398 1008.476,606.461 C1007.844,606.53 1007.198,606.413 1006.629,606.161 C1005.482,605.646 1004.631,604.72 1003.928,603.753 C1003.228,602.774 1002.669,601.703 1002.24,600.59" fill="#B7282C" id="path36044"/>
      <path d="M887.726,489.45 C887.726,489.45 874.266,523.847 859.309,523.847 C844.353,523.847 853.327,540.3 862.301,540.3 C871.275,540.3 907.168,505.901 904.178,498.423 C901.187,490.946 887.726,489.45 887.726,489.45" fill="#CC6200" id="path36046"/>
      <path d="M858.561,527.962 C858.819,529.095 859.203,530.2 859.718,531.233 C860.238,532.251 860.929,533.224 861.881,533.815 C862.823,534.428 864.013,534.475 865.059,534.095 C865.587,533.917 866.084,533.646 866.588,533.359 C867.088,533.074 867.581,532.771 868.069,532.46 C871.962,529.953 875.676,527.146 879.212,524.146 C882.775,521.176 886.158,517.983 889.203,514.491 C890.722,512.747 892.144,510.908 893.347,508.933 C894.559,506.97 895.565,504.839 895.951,502.536 C895.734,504.869 894.782,507.074 893.665,509.118 C892.509,511.158 891.124,513.056 889.642,514.863 C886.656,518.471 883.241,521.685 879.694,524.718 C877.9,526.212 876.061,527.651 874.179,529.033 C872.292,530.407 870.383,531.754 868.37,532.948 C867.866,533.248 867.359,533.539 866.839,533.816 C866.324,534.089 865.787,534.364 865.205,534.542 C864.627,534.725 864.007,534.81 863.394,534.746 C862.782,534.685 862.185,534.466 861.683,534.12 C860.674,533.422 860.022,532.379 859.54,531.317 C859.06,530.245 858.741,529.111 858.561,527.962" fill="#B7282C" id="path36048"/>
      <path d="M1217.901,552.398 C1217.901,552.398 1186.117,514.259 1114.605,533.329 C1114.605,533.329 1130.497,573.058 1160.69,571.469 C1190.884,569.879 1217.901,552.398 1217.901,552.398" fill="#3DAB4A" id="path36050"/>
      <path d="M1206.775,552.397 C1203.52,551.486 1200.269,550.579 1196.995,549.761 C1193.733,548.899 1190.462,548.077 1187.179,547.311 C1180.614,545.778 1174.035,544.319 1167.414,543.082 C1160.799,541.809 1154.146,540.756 1147.467,539.879 C1144.129,539.439 1140.777,539.079 1137.419,538.798 C1134.062,538.465 1130.694,538.277 1127.318,538.095 C1130.695,537.916 1134.081,537.951 1137.465,538.02 C1140.847,538.144 1144.227,538.369 1147.601,538.665 C1154.349,539.259 1161.054,540.277 1167.71,541.522 C1174.358,542.803 1180.963,544.311 1187.481,546.132 C1190.74,547.045 1193.985,547.999 1197.211,549.017 C1200.42,550.089 1203.632,551.147 1206.775,552.397" fill="#078B43" id="path36052"/>
      <path d="M990.674,472.419 C990.674,472.419 958.891,434.278 887.379,453.349 C887.379,453.349 903.27,493.077 933.464,491.488 C963.658,489.899 990.674,472.419 990.674,472.419" fill="#3DAB4A" id="path36054"/>
      <path d="M979.55,472.419 C976.295,471.507 973.045,470.6 969.77,469.783 C966.508,468.921 963.237,468.099 959.954,467.332 C953.389,465.799 946.81,464.339 940.188,463.102 C933.573,461.829 926.92,460.777 920.242,459.899 C916.903,459.459 913.552,459.098 910.193,458.818 C906.836,458.485 903.468,458.296 900.092,458.115 C903.47,457.936 906.855,457.97 910.239,458.04 C913.622,458.163 917.001,458.389 920.375,458.685 C927.123,459.28 933.828,460.297 940.485,461.541 C947.133,462.824 953.738,464.332 960.256,466.153 C963.515,467.066 966.76,468.021 969.986,469.039 C973.195,470.109 976.407,471.168 979.55,472.419" fill="#078B43" id="path36056"/>
      <path d="M1018.116,536.561 C1018.116,536.561 987.635,534.025 965.089,573.66 C965.089,573.66 989.398,583.86 1001.755,569.918 C1014.109,555.977 1018.116,536.561 1018.116,536.561" fill="#3DAB4A" id="path36058"/>
      <path d="M1013.307,541.442 C1011.499,542.477 1009.697,543.511 1007.922,544.596 C1006.134,545.656 1004.359,546.736 1002.603,547.846 C999.087,550.057 995.591,552.298 992.202,554.694 C988.768,557.025 985.439,559.505 982.174,562.066 C980.537,563.342 978.93,564.656 977.356,566.01 C975.757,567.338 974.221,568.738 972.68,570.14 C975.457,567.033 978.516,564.18 981.699,561.483 C984.883,558.786 988.238,556.296 991.645,553.89 C995.098,551.549 998.604,549.286 1002.216,547.204 C1005.83,545.126 1009.504,543.147 1013.307,541.442" fill="#078B43" id="path36060"/>
      <g clip-path="url(#Clip_17)" id="g36066" opacity="0.3">
        <path d="M1403.769,494.249 C1405.065,497.262 1405.681,500.617 1405.431,504.114 C1405.286,506.146 1405.091,508.191 1404.848,510.194 C1399.227,556.751 1364.574,625.478 1231.404,655.707 C1183.077,666.678 1123.355,671.58 1064.879,671.58 C1029.695,671.58 996.455,670.277 962.213,666.125 C891.354,657.536 835.257,638.112 798.164,604.833 C800.563,607.528 803.118,610.185 805.846,612.78 C842.869,648.004 900.25,668.39 973.334,677.249 C1007.58,681.398 1040.819,682.703 1076.002,682.703 C1134.476,682.703 1194.2,677.801 1242.528,666.831 C1375.697,636.601 1410.351,567.873 1415.971,521.317 C1416.212,519.314 1416.409,517.27 1416.555,515.236 C1417.217,505.989 1411.837,497.708 1403.769,494.249" fill="#C1996B" id="path36062"/>
        <path d="M1282.63,382.556 C1278.299,393.421 1265.984,398.72 1255.119,394.398 C1254.477,394.143 1211.225,377.213 1148.252,367.728 C1090.706,359.059 1004.279,354.995 919.349,384.86 C801.334,426.36 792.465,481.562 794.13,503.369 C794.688,510.682 798.599,536.527 825.483,562.105 C826.628,563.196 827.807,564.265 829.001,565.325 C808.953,542.515 805.753,521.05 805.253,514.493 C803.588,492.685 812.457,437.483 930.473,395.983 C1015.401,366.118 1101.828,370.182 1159.376,378.851 C1222.349,388.335 1265.599,405.266 1266.242,405.521 C1277.107,409.843 1289.423,404.544 1293.754,393.68 C1297.799,383.533 1293.447,378.119 1284.008,373.918 C1284.385,376.367 1283.969,379.202 1282.63,382.556" fill="#C1996B" id="path36064"/>
      </g>
      <path d="M1129.334,409.318 C1129.334,409.318 1110.601,442.904 1095.777,440.659 C1080.955,438.413 1087.268,456.79 1096.162,458.138 C1105.055,459.485 1146.022,429.266 1144.231,421.077 C1142.441,412.888 1129.334,409.318 1129.334,409.318" fill="#CC6200" id="path36068"/>
      <path d="M1094.391,444.804 C1094.467,445.994 1094.67,447.176 1095.009,448.31 C1095.361,449.429 1095.87,450.541 1096.715,451.32 C1097.134,451.703 1097.632,451.993 1098.179,452.122 C1098.722,452.256 1099.299,452.246 1099.857,452.135 C1100.418,452.031 1100.96,451.82 1101.509,451.597 C1102.057,451.372 1102.597,451.131 1103.134,450.88 C1107.425,448.847 1111.573,446.479 1115.559,443.891 C1119.57,441.335 1123.427,438.527 1126.975,435.367 C1128.745,433.787 1130.428,432.102 1131.912,430.25 C1133.403,428.411 1134.704,426.378 1135.434,424.1 C1134.87,426.434 1133.613,428.546 1132.209,430.479 C1130.767,432.403 1129.113,434.154 1127.372,435.802 C1123.868,439.085 1119.976,441.912 1115.976,444.534 C1113.955,445.821 1111.897,447.044 1109.8,448.201 C1107.703,449.351 1105.581,450.469 1103.375,451.415 C1102.825,451.653 1102.267,451.883 1101.704,452.094 C1101.143,452.303 1100.559,452.513 1099.941,452.61 C1099.329,452.713 1098.682,452.708 1098.07,452.538 C1097.455,452.372 1096.898,452.03 1096.456,451.589 C1095.576,450.693 1095.12,449.519 1094.816,448.364 C1094.519,447.198 1094.384,445.997 1094.391,444.804" fill="#B7282C" id="path36070"/>
      <path d="M1117.841,415.702 C1117.841,415.702 1084.898,402.739 1042.112,438.03 C1042.112,438.03 1064.756,457.208 1084.752,446.28 C1104.749,435.35 1117.841,415.702 1117.841,415.702" fill="#3DAB4A" id="path36072"/>
      <path d="M1110.3,419.369 C1107.815,419.888 1105.332,420.405 1102.864,420.988 C1100.39,421.537 1097.922,422.113 1095.464,422.728 C1090.547,423.947 1085.64,425.199 1080.791,426.655 C1075.917,428.024 1071.102,429.589 1066.322,431.257 C1063.93,432.084 1061.555,432.962 1059.199,433.892 C1056.828,434.789 1054.494,435.777 1052.156,436.769 C1054.382,435.544 1056.677,434.451 1058.983,433.378 C1061.302,432.339 1063.652,431.364 1066.019,430.433 C1070.759,428.587 1075.603,427.022 1080.473,425.561 C1085.37,424.19 1090.294,422.916 1095.27,421.877 C1100.245,420.843 1105.25,419.935 1110.3,419.369" fill="#078B43" id="path36074"/>
      <path d="M1512.932,280.942 C1512.652,279.36 1512.312,277.795 1511.926,276.245 C1511.746,274.321 1511.49,272.401 1511.15,270.486 C1502.858,223.864 1448.604,190.786 1371.37,177.555 L1225.241,302.939 L1215.491,310.514 C1215.491,310.514 1215.096,311.126 1214.575,312.09 L1213.628,312.902 L1214.18,312.844 C1212.172,316.822 1209.375,324.516 1217.705,324.684 C1228.948,324.91 1503.519,299.393 1509.656,295.809 C1515.793,292.226 1513.589,284.641 1512.932,280.942" fill="#E61F19" id="path36076"/>
      <path d="M1508.913,286.629 C1502.775,290.212 1228.205,315.729 1216.963,315.503 C1214.814,315.46 1213.411,314.914 1212.539,314.063 L1212.039,314.491 L1212.591,314.433 C1210.582,318.411 1207.786,326.105 1216.116,326.273 C1227.358,326.499 1501.93,300.982 1508.066,297.399 C1513.431,294.267 1512.424,288.076 1511.646,284.098 C1511.008,285.056 1510.125,285.921 1508.913,286.629" fill="#FFE8D4" id="path36078"/>
      <path d="M1510.498,300.93 C1501.836,300.93 1494.749,293.977 1494.615,285.284 C1494.111,252.593 1473.966,227.355 1434.738,210.273 C1402.884,196.401 1370.324,193.414 1369.999,193.386 C1361.264,192.618 1354.792,184.92 1355.549,176.184 C1356.305,167.45 1363.973,160.975 1372.722,161.722 C1374.231,161.851 1410.125,165.063 1446.67,180.807 C1498.116,202.971 1525.684,238.93 1526.391,284.795 C1526.525,293.57 1519.522,300.793 1510.747,300.928 C1510.664,300.93 1510.579,300.93 1510.498,300.93" fill="#C1996B" id="path36080"/>
      <g clip-path="url(#Clip_18)" id="g36084" opacity="0.31">
        <path d="M1520.736,283.432 C1512.097,284.071 1504.517,277.658 1503.744,268.999 C1500.832,236.432 1478.882,212.748 1438.502,198.603 C1405.713,187.117 1373.021,186.538 1372.694,186.535 C1364.556,186.421 1357.927,180.209 1357.104,172.308 C1356.568,173.688 1356.211,175.163 1356.077,176.713 C1355.321,185.45 1361.793,193.148 1370.529,193.915 C1370.853,193.943 1403.414,196.929 1435.267,210.801 C1474.496,227.885 1494.64,253.121 1495.144,285.814 C1495.279,294.506 1502.365,301.46 1511.026,301.46 C1511.11,301.46 1511.194,301.458 1511.276,301.457 C1520.05,301.322 1527.055,294.099 1526.92,285.325 C1526.901,284.12 1526.86,282.924 1526.803,281.733 C1525.04,282.635 1523.08,283.225 1520.986,283.412 C1520.903,283.419 1520.818,283.426 1520.736,283.432" fill="#C1996B" id="path36082"/>
      </g>
      <path d="M1165.693,462.703 C1160.995,472.439 1156.709,480.175 1153.747,485.247 C1157.662,479.995 1162.35,472.379 1165.693,462.703" fill="#FCEAA4" id="path36086"/>
      <path d="M1248.16,336.267 C1242.433,337.148 1236.587,339.005 1231.124,341.231 C1234.176,335.676 1237.152,329.749 1241.821,321.968 C1246.437,314.274 1254.86,310.558 1264.364,309.314 C1263.652,320.488 1260.288,334.402 1248.16,336.267 M1470.664,259.996 C1457.95,259.996 1442.064,242.521 1434.119,223.451 C1426.172,204.38 1407.111,207.571 1394.398,209.161 C1381.685,210.749 1353.099,191.704 1353.099,191.704 C1343.6,199.696 1216.394,287.005 1215.49,310.514 C1214.586,334.025 1183.022,358.802 1168.721,396.941 C1154.419,435.08 1132.153,495.751 1132.153,495.751 L1133.741,495.751 C1133.741,495.751 1157.859,428.562 1187.631,392.996 C1181.652,409.756 1171.879,437.984 1168.044,454.662 C1167.385,457.527 1166.586,460.183 1165.693,462.763 C1174.734,444.031 1185.288,417.877 1190.806,389.095 C1192.437,387.299 1194.08,385.585 1195.735,384.007 C1205.459,374.746 1212.212,367.634 1217.258,361.625 C1232.626,357.301 1252.599,350.232 1260.875,341.038 C1269.281,331.697 1275.493,318.513 1283.058,309.554 C1297.385,311.452 1310.329,316.622 1313.333,320.379 C1319.69,328.323 1330.814,328.324 1345.117,312.432 C1359.419,296.541 1361.008,299.718 1381.667,304.486 C1402.326,309.253 1389.613,320.378 1400.738,320.378 C1411.862,320.378 1395.97,306.075 1411.862,302.897 C1427.753,299.718 1424.575,301.308 1424.575,318.788 C1424.575,336.27 1435.699,333.091 1435.699,317.2 C1435.699,301.308 1435.699,296.54 1450.002,296.54 C1464.305,296.54 1473.841,296.543 1484.964,283.829 C1496.089,271.116 1483.378,259.996 1470.664,259.996" fill="#FCEAA4" id="path36088"/>
      <path d="M1146.455,493.605 L1149.634,492.004 C1149.634,492.004 1151.2,489.605 1153.747,485.248 C1149.683,490.697 1146.455,493.605 1146.455,493.605" fill="#FCEAA4" id="path36090"/>
    </g>
    <g id="g36122">
      <path d="M1331.303,248.559 C1327.957,246.28 1324.493,244.218 1320.998,242.243 C1315.419,239.093 1309.627,236.072 1303.242,234.964 C1301.431,234.651 1299.19,234.472 1297.22,235.612 C1294.774,237.028 1293.451,240.036 1293.428,243.121 C1293.384,249.224 1294.313,256.969 1298.414,259.648 C1300.153,260.783 1302.326,261.037 1304.472,259.307 C1305.898,258.156 1305.759,255.398 1305.421,254.1 C1304.988,252.439 1303.8,250.516 1302.194,250.656 C1300.144,250.837 1298.041,251.26 1295.96,251.777 C1293.112,252.488 1289.549,253.568 1287.042,256.396 C1282.594,261.416 1285.054,267.938 1287.337,271.454 C1289.743,275.16 1293.151,277.886 1296.407,280.318 C1303.188,285.386 1310.855,289.616 1319.074,291.384 C1321.964,292.004 1325.309,292.655 1328.536,291.174 C1332.002,289.584 1333.209,285.445 1333.046,281.547 C1333.046,281.488 1333.036,281.428 1333.036,281.368 C1332.651,282.705 1332.267,284.044 1331.881,285.381 C1335.378,281.987 1338.545,277.406 1340.507,272.487 C1342.231,268.168 1342.424,263.521 1341.353,259.797 C1339.657,253.902 1335.519,250.628 1331.153,248.409 C1330.95,248.308 1330.748,248.21 1330.546,248.115 C1328.976,247.367 1327.324,249.172 1327.132,251.437 C1326.909,254.088 1328.1,256.297 1329.786,257.102 C1330.281,257.337 1330.771,257.586 1331.254,257.848 C1332.163,258.339 1330.707,257.503 1331.561,258.028 C1331.808,258.182 1332.054,258.346 1332.296,258.512 C1332.748,258.817 1333.182,259.158 1333.607,259.513 C1333.834,259.7 1335.032,260.904 1334.195,260.014 C1334.46,260.295 1334.709,260.601 1334.952,260.916 C1335.18,261.211 1336.019,262.627 1335.221,261.235 C1335.426,261.594 1335.606,261.98 1335.774,262.379 C1336.099,263.149 1335.376,261.201 1335.642,262.002 C1335.704,262.192 1335.758,262.39 1335.81,262.588 C1335.844,262.717 1335.874,262.847 1335.903,262.98 C1336.083,263.779 1335.716,261.752 1335.837,262.575 C1335.895,262.958 1335.922,263.359 1335.938,263.763 C1335.971,264.57 1335.955,262.561 1335.937,263.381 C1335.937,263.577 1335.916,263.777 1335.903,263.976 C1335.874,264.369 1335.821,264.768 1335.758,265.166 C1335.996,263.656 1335.796,264.882 1335.71,265.245 C1335.616,265.637 1335.503,266.027 1335.383,266.414 C1335.263,266.801 1335.123,267.184 1334.981,267.564 C1334.702,268.298 1335.367,266.629 1335.063,267.351 C1334.984,267.539 1334.902,267.724 1334.818,267.909 C1334.191,269.303 1333.427,270.625 1332.612,271.881 C1332.243,272.446 1331.859,272.997 1331.467,273.536 C1330.928,274.277 1332.022,272.815 1331.325,273.717 C1331.132,273.969 1330.935,274.216 1330.736,274.459 C1329.908,275.484 1329.039,276.486 1328.129,277.37 C1327.072,278.396 1326.897,280.085 1326.975,281.381 C1327.051,282.672 1327.032,280.41 1326.976,281.389 C1326.966,281.541 1326.949,281.697 1326.928,281.852 C1326.847,282.529 1327.165,280.67 1327.018,281.329 C1326.925,281.75 1326.501,282.66 1327.101,281.269 C1326.935,281.656 1326.297,282.522 1327.157,281.373 C1327.003,281.579 1326.828,281.753 1326.653,281.918 C1326.558,282.004 1326.462,282.08 1326.365,282.156 C1325.925,282.5 1327.123,281.667 1326.656,281.958 C1326.129,282.284 1325.577,282.47 1325.042,282.613 C1324.828,282.669 1324.285,282.758 1325.238,282.578 C1325.086,282.607 1324.937,282.626 1324.788,282.646 C1324.47,282.691 1324.154,282.711 1323.839,282.728 C1323.07,282.766 1322.316,282.721 1321.57,282.649 C1321.188,282.611 1320.811,282.558 1320.435,282.5 C1320.239,282.472 1320.044,282.435 1319.85,282.401 C1319.146,282.278 1320.54,282.542 1319.833,282.396 C1318.913,282.206 1318.01,281.963 1317.116,281.699 C1313.156,280.531 1309.39,278.79 1305.767,276.803 C1305.309,276.551 1304.855,276.291 1304.401,276.03 C1305.149,276.463 1304.38,276.016 1304.255,275.942 C1304.031,275.808 1303.81,275.67 1303.586,275.534 C1302.628,274.949 1301.685,274.332 1300.753,273.697 C1299.046,272.537 1297.392,271.281 1295.793,269.924 C1295.203,269.421 1294.627,268.898 1294.057,268.361 C1293.786,268.104 1293.519,267.841 1293.254,267.575 C1292.489,266.808 1293.769,268.138 1293.042,267.351 C1292.503,266.769 1291.989,266.156 1291.497,265.51 C1291.312,265.266 1290.414,263.845 1291.148,265.084 C1290.906,264.677 1290.697,264.234 1290.507,263.776 C1291.107,265.226 1290.646,264.148 1290.549,263.71 C1290.982,265.642 1290.664,262.744 1290.637,264.781 C1290.651,263.705 1290.504,265.205 1290.582,264.863 C1290.814,263.855 1290.387,265.212 1290.533,264.893 C1290.653,264.637 1290.801,264.402 1290.953,264.175 C1290.247,265.23 1290.777,264.419 1291.026,264.152 C1291.23,263.932 1291.449,263.739 1291.669,263.551 C1291.885,263.364 1292.913,262.669 1291.994,263.274 C1294.362,261.717 1296.947,261.037 1299.359,260.5 C1300.199,260.313 1298.781,260.61 1299.593,260.45 C1299.85,260.4 1300.107,260.354 1300.362,260.309 C1300.835,260.226 1301.307,260.154 1301.777,260.089 C1302.185,260.032 1302.592,259.979 1302.997,259.944 C1302.238,257.061 1301.478,254.179 1300.718,251.296 C1300.326,251.612 1301.713,250.69 1301.017,251.08 C1300.879,251.157 1300.739,251.217 1300.599,251.272 C1299.774,251.601 1301.232,251.218 1300.649,251.293 C1300.435,251.32 1300.231,251.308 1300.029,251.283 C1301.167,251.427 1300.343,251.327 1300.04,251.17 C1301.032,251.684 1300.58,251.49 1300.351,251.304 C1299.857,250.907 1301.053,252.098 1300.601,251.576 C1300.483,251.441 1300.382,251.288 1300.279,251.138 C1301.106,252.357 1300.521,251.529 1300.354,251.166 C1300.226,250.89 1299.937,250.004 1300.392,251.335 C1300.294,251.052 1300.216,250.755 1300.136,250.46 C1300.047,250.133 1299.977,249.792 1299.906,249.455 C1299.65,248.235 1300.047,250.45 1299.85,249.094 C1299.717,248.17 1299.641,247.218 1299.575,246.261 C1299.536,245.714 1299.517,245.158 1299.495,244.603 C1299.47,243.889 1299.463,245.98 1299.505,245.008 C1299.522,244.591 1299.726,243.449 1299.421,245.145 C1299.464,244.902 1299.532,244.661 1299.609,244.421 C1299.677,244.216 1299.078,245.514 1299.545,244.661 C1299.989,243.849 1298.878,245.401 1299.465,244.747 C1299.607,244.589 1299.763,244.457 1299.921,244.335 C1299.989,244.282 1299.114,244.803 1299.829,244.435 C1300.027,244.335 1300.227,244.261 1300.426,244.193 C1300.534,244.157 1300.641,244.127 1300.748,244.1 C1301.42,243.918 1300.063,244.222 1300.549,244.141 C1301.699,243.948 1302.821,244.06 1303.898,244.228 C1304.874,244.38 1303.422,244.118 1304.183,244.28 C1304.503,244.349 1304.82,244.427 1305.134,244.507 C1305.863,244.695 1306.579,244.918 1307.29,245.155 C1308.781,245.654 1310.237,246.246 1311.674,246.879 C1313.844,247.832 1315.964,248.903 1318.056,250.027 C1319.059,250.565 1320.055,251.122 1321.045,251.688 C1321.256,251.808 1321.466,251.93 1321.676,252.051 C1321.78,252.112 1321.882,252.171 1321.986,252.231 C1322.572,252.573 1321.258,251.805 1321.837,252.144 C1322.321,252.429 1322.802,252.717 1323.282,253.008 C1325.222,254.177 1327.148,255.377 1329.031,256.658 C1330.277,257.506 1332.263,257.528 1333.003,254.88 C1333.7,252.392 1332.755,249.547 1331.302,248.559" fill="#078B43" id="path36096"/>
      <path d="M1349.84,249.834 C1351.295,265.897 1368.008,277.514 1387.174,275.78 C1406.336,274.043 1420.693,259.616 1419.238,243.554 C1417.784,227.489 1401.071,215.873 1381.906,217.609 C1362.744,219.342 1348.387,233.771 1349.84,249.834" fill="#FFAD9E" id="path36098"/>
      <g clip-path="url(#Clip_19)" id="g36102">
        <path d="M1395.71,267.805 C1400.068,270.687 1411.302,258.161 1410.654,251.017 C1410.008,243.873 1413.724,228.104 1407.228,235.894 C1400.731,243.685 1390.238,264.184 1395.71,267.805" fill="#FFAD9E" id="path36100"/>
      </g>
      <g clip-path="url(#Clip_20)" id="g36106">
        <path d="M1387.552,257.225 C1388.014,262.328 1389.773,270.399 1378.178,267.333 C1366.581,264.267 1351.278,254.334 1361.483,253.411 C1371.688,252.487 1387.552,257.225 1387.552,257.225" fill="#FFAD9E" id="path36104"/>
      </g>
      <g clip-path="url(#Clip_21)" id="g36110">
        <path d="M1374.195,246.086 C1374.195,246.086 1386.344,255.275 1388.945,249.896 C1391.545,244.516 1405.837,231.904 1400.734,232.366 C1395.631,232.828 1374.195,246.086 1374.195,246.086" fill="#FFAD9E" id="path36108"/>
      </g>
      <g clip-path="url(#Clip_22)" id="g36114">
        <path d="M1395.631,232.828 C1395.631,232.828 1365.2,237.64 1362.133,249.236 C1359.067,260.832 1357.491,254.801 1356.846,247.657 C1356.199,240.513 1370.496,216.582 1395.631,232.828" fill="#FFAD9E" id="path36112"/>
      </g>
      <path d="M1398.034,212.312 C1398.034,212.312 1365.091,199.347 1322.305,234.639 C1322.305,234.639 1344.95,253.816 1364.945,242.889 C1384.941,231.959 1398.034,212.312 1398.034,212.312" fill="#3DAB4A" id="path36116"/>
      <path d="M1390.492,215.978 C1388.006,216.497 1385.524,217.015 1383.056,217.597 C1380.582,218.146 1378.114,218.723 1375.656,219.337 C1370.739,220.556 1365.831,221.809 1360.982,223.265 C1356.108,224.634 1351.293,226.199 1346.513,227.866 C1344.121,228.693 1341.746,229.572 1339.39,230.503 C1337.019,231.398 1334.685,232.387 1332.347,233.379 C1334.573,232.154 1336.868,231.061 1339.174,229.987 C1341.494,228.949 1343.843,227.975 1346.21,227.043 C1350.95,225.196 1355.795,223.632 1360.665,222.171 C1365.561,220.8 1370.486,219.525 1375.462,218.486 C1380.437,217.452 1385.442,216.544 1390.492,215.978" fill="#078B43" id="path36118"/>
      <path d="M1476.666,396.759 L1316.222,709.934 L621.541,588.775 L623.838,586.09 L618.205,587.497 L618.205,620.664 L1327.654,756.617 L1493.26,413.864 L1493.55,356.92 z" fill="#F1F1F1" id="path36120"/>
    </g>
  </g>
</svg>
